<svg xmlns="http://www.w3.org/2000/svg" xmlns:xlink="http://www.w3.org/1999/xlink" width="199" height="165" viewBox="0 0 199 165"><defs><style>.a{fill:#e55b07;stroke:#e55b07;},.c{fill:#e55b07;stroke:#e55b07;}.b{clip-path:url(#c);}.c{stroke-width:0.494px;}.d{filter:url(#a);}</style><filter id="a" x="-9" y="-6" width="217" height="183" filterUnits="userSpaceOnUse"><feOffset dy="3" input="SourceAlpha"/><feGaussianBlur stdDeviation="3" result="b"/><feFlood flood-opacity="0.161"/><feComposite operator="in" in2="b"/><feComposite in="SourceGraphic"/></filter><clipPath id="c"><g class="d" transform="matrix(1, 0, 0, 1, 0, 0)"><rect class="a" width="199" height="165" rx="10" transform="translate(140 2962)"/></g></clipPath></defs><g class="b" transform="translate(-140 -2962)"><g transform="translate(180.794 2962)"><g transform="translate(0)"><path class="c" d="M60.3,181.346h0C60.32,181.342,60.458,181.3,60.3,181.346Z" transform="translate(-44.579 -63.262)"/><path class="c" d="M60.305,181.359Z" transform="translate(-44.579 -63.274)"/><path class="c" d="M153.624,153.7l-1.438-7.219a2.413,2.413,0,1,0-4.733.942l1.438,7.22a4.4,4.4,0,0,1-4.32,5.263H130.526V148.946a2.413,2.413,0,0,0-4.826,0V159.9H104.974L101.848,135.7l1.615-4.747c1.007.557,2.935,3.044,6.151,2.068a4.948,4.948,0,0,0,3.222-3.072l4.614-12.929,17.418,5.138.006-.019c.337.124.708.231,1.789.548a11.823,11.823,0,0,1,7.646,8.936l.946,4.751a2.413,2.413,0,0,0,4.733-.942l-.946-4.753a16.524,16.524,0,0,0-10.769-12.543c-.151-.056,1.248.364-21.287-6.285l-6.633-4.486V103.15A33.074,33.074,0,0,0,127.165,81.8a6.769,6.769,0,0,0,9.634-4.7,13.554,13.554,0,0,0,4.516-19.791V46.275A46.324,46.324,0,0,0,95.042,0,45.474,45.474,0,0,0,66.837,9.716a2.413,2.413,0,0,0,2.968,3.806,40.687,40.687,0,0,1,25.236-8.7,41.5,41.5,0,0,1,41.447,41.448V52.3a6.813,6.813,0,0,0-3.922-3.92v-2.1a37.527,37.527,0,1,0-75.054,0v2.1a6.812,6.812,0,0,0-3.922,3.92v-5.54A41.817,41.817,0,0,1,62.3,21.081a2.413,2.413,0,1,0-3.828-2.938,46.6,46.6,0,0,0-9.711,28.614V57.311A13.554,13.554,0,0,0,53.281,77.1a6.807,6.807,0,0,0,4.447,5.034A16.9,16.9,0,0,0,62.1,90.256a19.723,19.723,0,0,0,7.913,4.974,33.6,33.6,0,0,0,9.625,7.783V107.4l-6.533,4.418c-19.208,5.665-21.165,6.245-21.226,6.263l0,.006c-.054.019-.106.04-.157.061l-.006-.015a16.525,16.525,0,0,0-10.77,12.546l-4.62,23.265a9.026,9.026,0,0,0,8.854,10.784h23.29a2.413,2.413,0,0,0,0-4.826H64.38V148.946a2.413,2.413,0,0,0-4.826,0V159.9H45.184a4.2,4.2,0,0,1-4.121-5.018l4.619-23.263a11.822,11.822,0,0,1,7.647-8.937L72.592,117l4.619,12.944a4.9,4.9,0,0,0,3.222,3.072c2.828.86,4.35-.813,6.166-2.08l1.626,4.8L85.106,159.9H79.734a2.413,2.413,0,1,0,0,4.826h64.837A9.229,9.229,0,0,0,153.624,153.7ZM136.94,59.556a2.428,2.428,0,0,0,.157.2,8.719,8.719,0,0,1-.157,11.128Zm-83.958.2a2.4,2.4,0,0,0,.156-.2V70.881a8.719,8.719,0,0,1-.156-11.129Zm8.9,15.969a1.961,1.961,0,1,1-3.922,0V54.713a1.961,1.961,0,1,1,3.922,0Zm51.155,39.29-4.752,13.316a.122.122,0,0,1-.189.057l-4.408-3.27,5.524-12.69Zm15.15-60.3a1.961,1.961,0,1,1,3.922,0V75.72a1.961,1.961,0,1,1-3.922,0ZM62.654,81.93c.123-.054.244-.114.363-.175q.409,1.578.968,3.108A11.739,11.739,0,0,1,62.654,81.93ZM66.4,49.639a5.714,5.714,0,0,0-1.576.385,6.8,6.8,0,0,0-2.482-1.647v-2.1a32.7,32.7,0,1,1,65.4,0v2.1a6.781,6.781,0,0,0-1.67.928l-.048-.045c-.041-.037-.083-.072-.127-.106l-10.41-8.105a8.019,8.019,0,0,0-7.976-1.272C100.386,42.53,82.145,49,66.643,49.617A2.312,2.312,0,0,0,66.4,49.639ZM78.329,96.461H85.4a6.792,6.792,0,0,0,6.336,4.374h6.13a6.787,6.787,0,0,0,0-13.574h-6.13A6.792,6.792,0,0,0,85.4,91.635H77.52a18.649,18.649,0,0,1-4.693-.6,29.042,29.042,0,0,1-6.06-17.7V54.467a1.352,1.352,0,0,1,.14-.026c.055,0,.109-.006.162-.011,16.17-.7,34.868-7.325,42.184-10.153a3.259,3.259,0,0,1,3.267.581l10.3,8.02a2.552,2.552,0,0,1,.492,1.568V73.779A28.231,28.231,0,0,1,94.807,102.05,27.757,27.757,0,0,1,78.329,96.461Zm11.446-2.413a1.963,1.963,0,0,1,1.961-1.961h6.13a1.961,1.961,0,0,1,0,3.922h-6.13A1.964,1.964,0,0,1,89.774,94.048Zm-7.829,34.335a.121.121,0,0,1-.189-.057L77.005,115.01l3.836-2.595c9.322,21.084-.265-.642,5.535,12.681Zm2.52-20.357Zm.054.129-.054-.13v-2.9a32.543,32.543,0,0,0,10.578,1.755,33.375,33.375,0,0,0,10.483-1.688v2.971L99.109,123.5H90.96ZM99.26,128.323l-1.6,4.716H92.406l-1.6-4.716ZM89.972,159.9l2.845-22.04h4.443l2.846,22.04Z" transform="translate(-36.153)"/></g></g></g></svg>