<svg xmlns="http://www.w3.org/2000/svg" width="62.743" height="62.857" viewBox="0 0 62.743 62.857"><defs><style>.a{fill:#e55b07;stroke:#e55b07;stroke-linecap:round;stroke-linejoin:round;stroke-width:3px;}</style></defs><path class="a" d="M40.073,12.91A14.262,14.262,0,0,1,51.34,24.177M40.073,1.5A25.672,25.672,0,0,1,62.75,24.148M59.9,46.911v8.557a5.7,5.7,0,0,1-6.218,5.7,56.45,56.45,0,0,1-24.617-8.757A55.623,55.623,0,0,1,11.948,35.3,56.45,56.45,0,0,1,3.191,10.571,5.7,5.7,0,0,1,8.867,4.352h8.557a5.7,5.7,0,0,1,5.7,4.906,36.625,36.625,0,0,0,2,8.015,5.7,5.7,0,0,1-1.284,6.019L20.22,26.915A45.639,45.639,0,0,0,37.335,44.03l3.623-3.623a5.7,5.7,0,0,1,6.019-1.284,36.625,36.625,0,0,0,8.015,2A5.7,5.7,0,0,1,59.9,46.911Z" transform="translate(-1.665 0.156)"/></svg>