<svg xmlns="http://www.w3.org/2000/svg" width="55.018" height="73.357" viewBox="0 0 55.018 73.357"><defs><style>.a{fill:#e55b07;}</style></defs><path class="a" d="M41.263,36.678H13.754v9.17H41.263ZM54.015,15.044,39.988,1a3.436,3.436,0,0,0-2.436-1h-.874V18.339H55.018v-.874A3.428,3.428,0,0,0,54.015,15.044ZM32.094,19.485V0H3.439A3.43,3.43,0,0,0,0,3.439v66.48a3.43,3.43,0,0,0,3.439,3.439h48.14a3.43,3.43,0,0,0,3.439-3.439V22.924H35.532A3.449,3.449,0,0,1,32.094,19.485ZM9.17,10.316A1.146,1.146,0,0,1,10.316,9.17H21.778a1.146,1.146,0,0,1,1.146,1.146v2.292a1.146,1.146,0,0,1-1.146,1.146H10.316A1.146,1.146,0,0,1,9.17,12.608Zm0,9.17a1.146,1.146,0,0,1,1.146-1.146H21.778a1.146,1.146,0,0,1,1.146,1.146v2.292a1.146,1.146,0,0,1-1.146,1.146H10.316A1.146,1.146,0,0,1,9.17,21.778ZM45.848,63.041A1.146,1.146,0,0,1,44.7,64.187H33.24a1.146,1.146,0,0,1-1.146-1.146V60.749A1.146,1.146,0,0,1,33.24,59.6H44.7a1.146,1.146,0,0,1,1.146,1.146Zm0-28.655V48.14a2.292,2.292,0,0,1-2.292,2.292H11.462A2.292,2.292,0,0,1,9.17,48.14V34.386a2.292,2.292,0,0,1,2.292-2.292H43.556A2.292,2.292,0,0,1,45.848,34.386Z"/></svg>