<svg xmlns="http://www.w3.org/2000/svg" width="7.863" height="10.484" viewBox="0 0 7.863 10.484"><defs><style>.a{fill:red;}</style></defs><path class="a" d="M3.725,5.244a1.976,1.976,0,0,1-.041-.96C3.856,4.284,3.839,5.039,3.725,5.244Zm-.035.967a9.449,9.449,0,0,1-.582,1.284A7.54,7.54,0,0,1,4.4,7.046,2.653,2.653,0,0,1,3.69,6.211ZM1.763,8.766c0,.016.27-.111.715-.823A2.83,2.83,0,0,0,1.763,8.766Zm3.315-5.49H7.863V9.993a.49.49,0,0,1-.491.491H.491A.49.49,0,0,1,0,9.993V.491A.49.49,0,0,1,.491,0h4.1V2.785A.493.493,0,0,0,5.078,3.276ZM4.915,6.794a2.055,2.055,0,0,1-.874-1.1,2.943,2.943,0,0,0,.127-1.315.513.513,0,0,0-.979-.139,3.4,3.4,0,0,0,.166,1.577,19.229,19.229,0,0,1-.835,1.757s0,0,0,0c-.555.285-1.507.911-1.116,1.392a.636.636,0,0,0,.44.2c.367,0,.731-.369,1.251-1.265a11.672,11.672,0,0,1,1.618-.475,3.1,3.1,0,0,0,1.311.4.53.53,0,0,0,.4-.889C6.137,6.663,5.31,6.743,4.915,6.794ZM7.72,2.15,5.713.143A.491.491,0,0,0,5.365,0H5.242V2.621H7.863V2.5A.49.49,0,0,0,7.72,2.15ZM6.2,7.378c.084-.055-.051-.244-.876-.184C6.086,7.517,6.2,7.378,6.2,7.378Z"/></svg>