<svg xmlns="http://www.w3.org/2000/svg" width="14.646" height="10.985" viewBox="0 0 14.646 10.985"><defs><style>.a{fill:#e55b07;}</style></defs><path class="a" d="M13.273,15.485H1.373A1.373,1.373,0,0,1,0,14.112V5.873A1.373,1.373,0,0,1,1.373,4.5h11.9a1.373,1.373,0,0,1,1.373,1.373v8.238A1.373,1.373,0,0,1,13.273,15.485ZM3.2,6.1a1.6,1.6,0,1,0,1.6,1.6A1.6,1.6,0,0,0,3.2,6.1ZM1.831,13.654H12.815v-3.2l-2.5-2.5a.343.343,0,0,0-.485,0L5.95,11.823,4.362,10.235a.343.343,0,0,0-.485,0L1.831,12.281Z" transform="translate(0 -4.5)"/></svg>