<svg xmlns="http://www.w3.org/2000/svg" width="54.27" height="46.114" viewBox="0 0 54.27 46.114"><defs><style>.a{fill:#fff;}</style></defs><path class="a" d="M12.148,46.114H.9V15.327H12.148ZM6.516,11.127C2.918,11.127,0,8.595,0,5.538S2.917,0,6.516,0s6.516,2.479,6.516,5.537S10.113,11.127,6.516,11.127ZM54.258,46.114H43.031V31.127c0-3.572-.085-8.152-5.85-8.152-5.85,0-6.746,3.881-6.746,7.9V46.114H19.2V15.327H29.987v4.2h.157c1.5-2.419,5.171-4.972,10.646-4.972,11.387,0,13.48,6.372,13.48,14.648V46.114Z" transform="translate(0 -0.001)"/></svg>