<svg xmlns="http://www.w3.org/2000/svg" xmlns:xlink="http://www.w3.org/1999/xlink" width="64" height="64" viewBox="0 0 64 64"><defs><style>.a,.c{fill:#f2efef;}.a{stroke:#707070;}.b{clip-path:url(#a);}</style><clipPath id="a"><rect class="a" width="64" height="64" transform="translate(318 1706)"/></clipPath></defs><g class="b" transform="translate(-318 -1706)"><g transform="translate(318 1706)"><path class="c" d="M39.111,17.923a1.25,1.25,0,0,0,1.768-1.768l-.017-.017a1.25,1.25,0,0,0-1.768,1.768Z"/><path class="c" d="M59.277,29.75l4.357-4.357a1.25,1.25,0,0,0-.884-2.134H53.718A27.251,27.251,0,1,0,7.981,49.019a27.445,27.445,0,0,0,5.009,3.962L9.225,59.634A1.25,1.25,0,0,0,10.312,61.5H16.75a1.25,1.25,0,0,0,1.088-.634l2.663-4.7a27.579,27.579,0,0,0,13.5,0l2.663,4.7a1.25,1.25,0,0,0,1.088.634h6.437a1.25,1.25,0,0,0,1.088-1.866l-3.766-6.653a27.451,27.451,0,0,0,5.009-3.962,27.158,27.158,0,0,0,7.2-12.778H62.75a1.25,1.25,0,0,0,.884-2.134ZM56.991,28.5H48.268l2.741-2.741h8.724ZM16.021,59H12.456l2.721-4.807a26.875,26.875,0,0,0,2.873,1.222Zm26.022,0H38.479L36.45,55.415a26.876,26.876,0,0,0,2.873-1.222Zm2.707-11.749A24.861,24.861,0,0,1,39.27,51.4c-.025.012-.049.023-.073.037l-.043.028a24.427,24.427,0,0,1-4.793,2.007,1.238,1.238,0,0,0-.194.056,24.993,24.993,0,0,1-13.833,0,1.241,1.241,0,0,0-.194-.056,24.425,24.425,0,0,1-4.792-2.007l-.043-.028c-.024-.014-.049-.025-.073-.037a24.858,24.858,0,0,1-5.481-4.145A24.75,24.75,0,1,1,51.138,23.259h-.647a1.25,1.25,0,0,0-.884.366l-3.318,3.318a19.259,19.259,0,0,0-2.179-6.492,1.25,1.25,0,0,0-2.189,1.208A16.6,16.6,0,0,1,43.941,28.5H38.429a11.254,11.254,0,1,0,0,2.5h5.506a16.733,16.733,0,1,1-8.595-15.922,1.25,1.25,0,1,0,1.208-2.189,19.389,19.389,0,0,0-11.871-2.218,19.25,19.25,0,1,0,21.616,21.89l3.313,3.313a1.25,1.25,0,0,0,.884.366h.647A24.669,24.669,0,0,1,44.751,47.251ZM31.332,27.393a1.25,1.25,0,0,0-1.707-.458l-3,1.732a1.25,1.25,0,0,0,0,2.165l3,1.732A1.249,1.249,0,0,0,31.4,31h4.509a8.683,8.683,0,0,1-2.474,4.937h0A8.748,8.748,0,1,1,35.911,28.5H31.4A1.247,1.247,0,0,0,31.332,27.393Zm19.676,6.348L48.268,31h8.724l2.741,2.741Z"/></g></g></svg>