<svg xmlns="http://www.w3.org/2000/svg" width="58.437" height="45.88" viewBox="0 0 58.437 45.88"><defs><style>.a{fill:#fff;}</style></defs><path class="a" d="M52.43,14.815c.037.5.037,1,.037,1.505,0,15.305-12.051,32.94-34.076,32.94A34.7,34.7,0,0,1,0,44.063a25.623,25.623,0,0,0,2.892.143A24.516,24.516,0,0,0,17.761,39.26a11.955,11.955,0,0,1-11.2-8.029,15.612,15.612,0,0,0,2.262.179,13.079,13.079,0,0,0,3.152-.394,11.685,11.685,0,0,1-9.6-11.362V19.51a12.377,12.377,0,0,0,5.414,1.47,11.474,11.474,0,0,1-5.339-9.642A11.2,11.2,0,0,1,4.079,5.5,34.445,34.445,0,0,0,28.774,17.611a12.652,12.652,0,0,1-.3-2.652A11.777,11.777,0,0,1,40.454,3.381,12.144,12.144,0,0,1,49.2,7.037a24.081,24.081,0,0,0,7.6-2.8,11.626,11.626,0,0,1-5.265,6.38,24.665,24.665,0,0,0,6.9-1.792,25.3,25.3,0,0,1-6.007,5.986Z" transform="translate(0 -3.381)"/></svg>