<svg xmlns="http://www.w3.org/2000/svg" xmlns:xlink="http://www.w3.org/1999/xlink" width="64" height="64" viewBox="0 0 64 64"><defs><style>.a,.c{fill:#f2efef;}.a{stroke:#707070;}.b{clip-path:url(#a);}</style><clipPath id="a"><rect class="a" width="64" height="64" transform="translate(1106 1702)"/></clipPath></defs><g class="b" transform="translate(-1106 -1702)"><g transform="translate(1106 1702)"><path class="c" d="M25.384,32.366a1.25,1.25,0,1,0,0,1.768A1.249,1.249,0,0,0,25.384,32.366Z"/><path class="c" d="M32,34.5a3.75,3.75,0,1,0,3.75,3.75A3.754,3.754,0,0,0,32,34.5Zm0,5a1.25,1.25,0,1,1,1.25-1.25A1.251,1.251,0,0,1,32,39.5Z"/><path class="c" d="M32,28.25a9.917,9.917,0,0,0-4.016.839,1.25,1.25,0,0,0,1.006,2.289A7.432,7.432,0,0,1,32,30.75a7.5,7.5,0,1,1-7.5,7.5c0-.043,0-.084,0-.127a1.25,1.25,0,1,0-2.5-.058c0,.062,0,.123,0,.185a10,10,0,1,0,10-10Z"/><path class="c" d="M32,9.5a1.25,1.25,0,0,0-1.25,1.25v7.5a1.25,1.25,0,1,0,2.5,0v-7.5A1.25,1.25,0,0,0,32,9.5Z"/><path class="c" d="M18.035,18.767l-5.3-5.3a1.25,1.25,0,0,0-1.768,1.768l5.3,5.3a1.25,1.25,0,0,0,1.768-1.768Z"/><path class="c" d="M53.035,13.465a1.25,1.25,0,0,0-1.768,0l-5.3,5.3a1.25,1.25,0,1,0,1.768,1.768l5.3-5.3A1.25,1.25,0,0,0,53.035,13.465Z"/><path class="c" d="M63.687,38.464C55.746,29.474,43.956,22,32,22S8.252,29.476.313,38.464a1.25,1.25,0,0,0,1.874,1.655c.266-.3.539-.6.816-.9a35.152,35.152,0,0,0,58,0c.276.3.549.6.816.9a1.25,1.25,0,0,0,1.874-1.655ZM32,52A32.594,32.594,0,0,1,4.789,37.378C9.242,33.014,19.533,24.5,32,24.5s22.758,8.514,27.211,12.877A32.594,32.594,0,0,1,32,52Z"/></g></g></svg>