<svg xmlns="http://www.w3.org/2000/svg" width="94" height="94" viewBox="0 0 94 94"><defs><style>.a{fill:#11ca67;}</style></defs><path class="a" d="M68.534,56.329c-1.179-.588-6.921-3.4-7.99-3.784s-1.853-.587-2.636.588c-.772,1.155-3.02,3.776-3.7,4.551s-1.367.822-2.53.294a31.788,31.788,0,0,1-9.412-5.816,35.534,35.534,0,0,1-6.5-8.107c-.681-1.175-.074-1.821.509-2.409.533-.529,1.179-1.351,1.766-2.048a9.929,9.929,0,0,0,1.163-1.943,2.153,2.153,0,0,0-.1-2.052c-.294-.588-2.632-6.345-3.611-8.64-.94-2.287-1.907-2-2.632-2-.674-.059-1.453-.059-2.236-.059a4.415,4.415,0,0,0-3.122,1.406,13.076,13.076,0,0,0-4.093,9.694c0,5.7,4.191,11.221,4.774,12.044.584.764,8.245,12.514,19.975,17.566,2.8,1.175,4.974,1.88,6.674,2.464a16.2,16.2,0,0,0,7.363.474c2.248-.356,6.921-2.824,7.9-5.585,1-2.761,1-5.053.705-5.581s-1.058-.822-2.232-1.351M47.239,85.188h-.063a39.181,39.181,0,0,1-19.8-5.4l-1.41-.838L11.28,82.763l3.936-14.276-.936-1.469a38.846,38.846,0,0,1,60.5-47.92A38.337,38.337,0,0,1,86.174,46.475,38.893,38.893,0,0,1,47.262,85.191M80.37,13.509A47.556,47.556,0,0,0,47.176,0,46.568,46.568,0,0,0,6.643,69.865L0,94l24.812-6.47A47.244,47.244,0,0,0,47.176,93.2H47.2A46.765,46.765,0,0,0,94,46.6,46.194,46.194,0,0,0,80.311,13.661"/></svg>