<svg xmlns="http://www.w3.org/2000/svg" width="66.107" height="46.481" viewBox="0 0 66.107 46.481"><defs><style>.a{fill:#fff;}</style></defs><path class="a" d="M65.776,11.773A8.306,8.306,0,0,0,59.931,5.89C54.776,4.5,34.1,4.5,34.1,4.5S13.431,4.5,8.276,5.89a8.307,8.307,0,0,0-5.845,5.882C1.05,16.962,1.05,27.788,1.05,27.788s0,10.826,1.381,16.015a8.183,8.183,0,0,0,5.845,5.789c5.155,1.39,25.828,1.39,25.828,1.39s20.672,0,25.828-1.39A8.183,8.183,0,0,0,65.776,43.8c1.381-5.189,1.381-16.015,1.381-16.015s0-10.826-1.381-16.015ZM27.342,37.617V17.958L44.62,27.788,27.342,37.617Z" transform="translate(-1.05 -4.5)"/></svg>